<svg id="Capa_1" enable-background="new 0 0 512 512" height="512" viewBox="0 0 512 512" width="512" xmlns="http://www.w3.org/2000/svg"><g id="XMLID_835_"><g id="XMLID_836_"><g id="XMLID_289_"><path id="XMLID_451_" d="m244.429 351.293c-20.842 19.753-37.473 44.295-48.094 70.972l-5.559 13.961c-13.491 33.881-45.772 55.774-82.24 55.774-48.809 0-88.519-39.709-88.519-88.519v-201.73c0-100.218 81.533-181.751 181.752-181.751 89.464 0 162.249 72.785 162.249 162.249 0 42.893-17.446 84.836-47.865 115.075-3.917 3.894-3.936 10.226-.042 14.142 3.893 3.918 10.224 3.936 14.142.042 17.012-16.912 30.341-36.712 39.617-58.852 9.388-22.406 14.147-46.095 14.147-70.407 0-100.493-81.756-182.249-182.249-182.249-111.246 0-201.751 90.505-201.751 201.751v201.73c0 59.837 48.681 108.519 108.519 108.519 21.803 0 42.865-6.469 60.91-18.706 18.044-12.238 31.846-29.413 39.911-49.67l5.559-13.961c9.557-24.002 24.52-46.082 43.271-63.854 4.009-3.799 4.178-10.128.379-14.137-3.8-4.011-10.13-4.179-14.137-.379z"/><path id="XMLID_452_" d="m110.017 372.31c59.637 0 108.155-48.518 108.155-108.154 0-5.522-4.477-10-10-10s-10 4.478-10 10c0 48.608-39.546 88.154-88.155 88.154l-.414-.001c-.021 0-.042 0-.063 0-5.494 0-9.964 4.437-9.999 9.938-.034 5.522 4.416 10.027 9.938 10.062z"/><path id="XMLID_453_" d="m318.017 200.469c5.523 0 10-4.477 10-10 0-74.147-60.322-134.469-134.468-134.469-75.835 0-137.532 61.696-137.532 137.612 0 15.124 10.344 28.427 25.155 32.35 25.815 6.838 43.845 30.293 43.845 57.038 0 5.522 4.477 10 10 10s10-4.478 10-10c0-35.807-24.148-67.212-58.724-76.371-6.051-1.603-10.276-6.956-10.276-13.098 0-64.807 52.725-117.531 117.532-117.531 63.118 0 114.468 51.351 114.468 114.469 0 5.523 4.477 10 10 10z"/><path id="XMLID_454_" d="m192.796 118.657c-24.132 0-46.934 11.77-60.993 31.484-3.207 4.496-2.161 10.741 2.335 13.948s10.741 2.162 13.948-2.335c10.314-14.462 27.028-23.097 44.71-23.097 29.399 0 53.316 23.917 53.316 53.316 0 5.523 4.477 10 10 10s10-4.477 10-10c.001-40.427-32.889-73.316-73.316-73.316z"/><path id="XMLID_455_" d="m294.487 338.76c1.86-1.86 2.93-4.43 2.93-7.07 0-2.63-1.07-5.21-2.93-7.069-1.86-1.86-4.44-2.931-7.07-2.931s-5.21 1.07-7.07 2.931c-1.86 1.859-2.93 4.439-2.93 7.069 0 2.641 1.07 5.21 2.93 7.07 1.86 1.87 4.44 2.93 7.07 2.93s5.21-1.06 7.07-2.93z"/><path id="XMLID_456_" d="m94.087 432.069c1.86-1.859 2.93-4.439 2.93-7.069s-1.07-5.21-2.93-7.07-4.44-2.93-7.07-2.93-5.21 1.069-7.07 2.93c-1.86 1.86-2.93 4.44-2.93 7.07s1.07 5.21 2.93 7.069c1.86 1.86 4.44 2.931 7.07 2.931s5.21-1.07 7.07-2.931z"/><path id="XMLID_464_" d="m500.073 266.007c2.385-4.477 3.743-9.58 3.743-14.997 0-17.645-14.355-32-32-32s-32 14.355-32 32 14.355 32 32 32c4.874 0 9.494-1.1 13.632-3.057 10.2 15.514 8.486 36.62-5.147 50.252s-34.739 15.347-50.253 5.147c1.957-4.138 3.057-8.759 3.057-13.632 0-17.645-14.355-32-32-32s-32 14.355-32 32 14.355 32 32 32c5.412 0 10.512-1.355 14.986-3.737 10.316 7.744 22.797 11.938 35.926 11.938 16.026 0 31.094-6.241 42.427-17.573 21.331-21.332 23.201-54.858 5.629-78.341zm-110.967 55.714c0-6.617 5.383-12 12-12s12 5.383 12 12-5.383 12-12 12-12-5.383-12-12zm70.71-70.711c0-6.617 5.383-12 12-12s12 5.383 12 12-5.383 12-12 12-12-5.383-12-12z"/><path id="XMLID_468_" d="m424.478 449.404c-4.184-29.025-29.21-51.404-59.375-51.404s-55.191 22.379-59.375 51.404c-13.085 4.017-22.625 16.213-22.625 30.596 0 17.645 14.355 32 32 32s32-14.355 32-32c0-13.845-8.841-25.662-21.172-30.111 3.759-18.18 19.894-31.889 39.172-31.889s35.413 13.709 39.172 31.889c-12.332 4.448-21.172 16.265-21.172 30.111 0 17.645 14.355 32 32 32s32-14.355 32-32c0-14.384-9.54-26.579-22.625-30.596zm-109.375 42.596c-6.617 0-12-5.383-12-12s5.383-12 12-12 12 5.383 12 12-5.383 12-12 12zm100 0c-6.617 0-12-5.383-12-12s5.383-12 12-12 12 5.383 12 12-5.383 12-12 12z"/></g></g></g></svg>