<?xml version="1.0" encoding="UTF-8" standalone="no"?>
<svg
   xmlns:dc="http://purl.org/dc/elements/1.1/"
   xmlns:cc="http://creativecommons.org/ns#"
   xmlns:rdf="http://www.w3.org/1999/02/22-rdf-syntax-ns#"
   xmlns:svg="http://www.w3.org/2000/svg"
   xmlns="http://www.w3.org/2000/svg"
   xmlns:sodipodi="http://sodipodi.sourceforge.net/DTD/sodipodi-0.dtd"
   xmlns:inkscape="http://www.inkscape.org/namespaces/inkscape"
   height="11.999967pt"
   viewBox="0 -9 12.0234 11.999967"
   width="11.999987pt"
   version="1.1"
   id="svg904"
   sodipodi:docname="favicon.svg"
   inkscape:version="0.92.5 (2060ec1f9f, 2020-04-08)">
  <metadata
     id="metadata910">
    <rdf:RDF>
      <cc:Work
         rdf:about="">
        <dc:format>image/svg+xml</dc:format>
        <dc:type
           rdf:resource="http://purl.org/dc/dcmitype/StillImage" />
        <dc:title></dc:title>
      </cc:Work>
    </rdf:RDF>
  </metadata>
  <defs
     id="defs908" />
  <sodipodi:namedview
     pagecolor="#ffffff"
     bordercolor="#666666"
     borderopacity="1"
     objecttolerance="10"
     gridtolerance="10"
     guidetolerance="10"
     inkscape:pageopacity="0"
     inkscape:pageshadow="2"
     inkscape:window-width="1680"
     inkscape:window-height="987"
     id="namedview906"
     showgrid="false"
     fit-margin-top="0"
     fit-margin-left="0"
     fit-margin-right="0"
     fit-margin-bottom="0"
     inkscape:zoom="26.236291"
     inkscape:cx="12.016393"
     inkscape:cy="3.9650489"
     inkscape:window-x="-8"
     inkscape:window-y="-8"
     inkscape:window-maximized="1"
     inkscape:current-layer="svg904" />
  <path
     d="m 5.72859,-2.3840363 h 0.28675 c 0.0973,0 0.17613,-0.0817 0.17613,-0.18271 0,-0.10096 -0.0788,-0.18271 -0.17613,-0.18271 H 5.77115 v -0.44316 c 0,-0.10097 -0.0789,-0.18271 -0.17612,-0.18271 -0.0973,0 -0.17613,0.0817 -0.17613,0.18271 v 0.48884 c 0,0.17633 0.13898,0.31974 0.30969,0.31974 z m 0,0"
     id="path888"
     inkscape:connector-curvature="0"
     style="fill:#5c258d;fill-opacity:1;stroke-width:0.02391831" />
  <path
     d="m 5.09995,-3.7554963 c -0.0685,-0.0715 -0.18007,-0.0719 -0.24905,-7.6e-4 -0.23208,0.23923 -0.60966,0.23923 -0.84165,0 -0.069,-0.0711 -0.18052,-0.0707 -0.24905,7.6e-4 -0.0686,0.0717 -0.0682,0.18728 7.5e-4,0.25846 0.18447,0.19023 0.42674,0.28529 0.6691,0.28529 0.24235,0 0.48471,-0.0952 0.66918,-0.28529 0.069,-0.0712 0.0693,-0.1868 7.5e-4,-0.25846 z m 0,0"
     id="path890"
     inkscape:connector-curvature="0"
     style="fill:#5c258d;fill-opacity:1;stroke-width:0.02391831" />
  <path
     d="m 7.18034,-3.2117463 c 0.24227,0 0.48471,-0.0951 0.66919,-0.28529 0.069,-0.0712 0.0692,-0.1868 7.4e-4,-0.25836 -0.0685,-0.0716 -0.18007,-0.072 -0.24905,-9.2e-4 -0.23208,0.23933 -0.60965,0.23933 -0.84173,0 -0.069,-0.0711 -0.18053,-0.0707 -0.24915,9.2e-4 -0.0685,0.0716 -0.0682,0.18718 9e-4,0.25836 0.18447,0.19023 0.42674,0.28529 0.66919,0.28529 z m 0,0"
     id="path892"
     inkscape:connector-curvature="0"
     style="fill:#5c258d;fill-opacity:1;stroke-width:0.02391831" />
  <path
     d="m 4.87218,-1.9780763 c -0.0686,0.0716 -0.0683,0.18728 7.5e-4,0.25836 0.25547,0.26341 0.59121,0.39502 0.92768,0.39502 0.33886,0 0.67827,-0.13342 0.93695,-0.40006 0.069,-0.0712 0.0693,-0.1869 7.5e-4,-0.25846 -0.0685,-0.0716 -0.18007,-0.0718 -0.24905,-7.6e-4 -0.37858,0.39035 -0.99226,0.39263 -1.368,0.005 -0.069,-0.0712 -0.18053,-0.0708 -0.24905,7.7e-4 z m 0,0"
     id="path894"
     inkscape:connector-curvature="0"
     style="fill:#5c258d;fill-opacity:1;stroke-width:0.02391831" />
  <path
     d="m 9.75453,-4.8486163 c 0.30198,0.12448 0.37087,0.19585 0.49076,0.50902 0.0373,0.0974 0.1265,0.16025 0.22741,0.16025 0.1009,0 0.19007,-0.0629 0.22731,-0.16015 0.12008,-0.31327 0.18887,-0.38464 0.49076,-0.50912 0.0939,-0.0386 0.15439,-0.13122 0.15439,-0.2359 0,-0.10468 -0.0605,-0.19727 -0.15429,-0.23591 -0.30199,-0.12447 -0.37078,-0.19584 -0.49086,-0.50939 -0.0373,-0.0971 -0.12659,-0.15978 -0.22731,-0.15978 -0.10082,0 -0.19007,0.0627 -0.22732,0.15997 -0.11998,0.31336 -0.18887,0.38473 -0.49076,0.5092 -0.0937,0.0386 -0.15439,0.13123 -0.15439,0.23591 0,0.10477 0.0606,0.19727 0.1543,0.2359 z m 0.71817,-0.61921 c 0.0926,0.17662 0.19924,0.2872 0.36958,0.38331 -0.17034,0.0961 -0.27693,0.20669 -0.36958,0.38331 -0.0926,-0.17662 -0.19915,-0.2871 -0.3695,-0.38331 0.17035,-0.0961 0.27685,-0.20669 0.3695,-0.38331 z m 0,0"
     id="path896"
     inkscape:connector-curvature="0"
     style="fill:#5c258d;fill-opacity:1;stroke-width:0.02391831" />
  <path
     d="m 0.73818,-4.8412863 c 0.30198,0.12457 0.37087,0.19594 0.49077,0.50911 0.0371,0.0974 0.12641,0.16016 0.2274,0.16016 0.10082,0 0.19007,-0.0627 0.22731,-0.15996 0.11999,-0.31337 0.18879,-0.38474 0.49086,-0.50931 0.0937,-0.0386 0.1543,-0.13113 0.1543,-0.23581 0,-0.10467 -0.0606,-0.19727 -0.1543,-0.23581 -0.30207,-0.12456 -0.37087,-0.19593 -0.49086,-0.5093 -0.0372,-0.0973 -0.12649,-0.16006 -0.22731,-0.16006 -0.10099,0 -0.19025,0.0629 -0.22731,0.16006 -0.11999,0.31337 -0.18888,0.38474 -0.49095,0.5093 -0.0937,0.0386 -0.1542,0.13123 -0.1542,0.23581 0,0.10458 0.0605,0.19718 0.15429,0.23581 z m 0.71817,-0.61912 c 0.0926,0.17662 0.19924,0.2872 0.3695,0.38331 -0.17026,0.0961 -0.27685,0.20669 -0.3695,0.38331 -0.0927,-0.17662 -0.19924,-0.2872 -0.36949,-0.38331 0.17025,-0.0961 0.27684,-0.20669 0.36949,-0.38331 z m 0,0"
     id="path898"
     inkscape:connector-curvature="0"
     style="fill:#5c258d;fill-opacity:1;stroke-width:0.02391831" />
  <path
     d="m 1.86887,-7.6266563 c 0.23594,0.0973 0.28556,0.14874 0.37931,0.3935 0.0353,0.0921 0.11981,0.15168 0.21539,0.15168 0.0955,0 0.17998,-0.0595 0.2152,-0.15159 0.0939,-0.24485 0.14347,-0.29633 0.37941,-0.39359 0.0888,-0.0365 0.14613,-0.12418 0.14613,-0.22334 0,-0.099 -0.0572,-0.18661 -0.14613,-0.22334 -0.23594,-0.0974 -0.28556,-0.14883 -0.37931,-0.39349 -0.0353,-0.0921 -0.11981,-0.15169 -0.2153,-0.15169 -0.0956,0 -0.18007,0.0595 -0.21529,0.15159 -0.0938,0.24476 -0.14347,0.29624 -0.37968,0.39368 -0.0886,0.0366 -0.14586,0.12428 -0.14586,0.22325 0,0.0992 0.0574,0.1868 0.14613,0.22334 z m 0.59461,-0.46486 c 0.0618,0.10335 0.13329,0.17748 0.23281,0.24152 -0.0995,0.064 -0.17098,0.13818 -0.23281,0.24142 -0.0617,-0.10324 -0.1331,-0.17738 -0.23273,-0.24142 0.0996,-0.0641 0.17099,-0.13817 0.23273,-0.24152 z m 0,0"
     id="path900"
     inkscape:connector-curvature="0"
     style="fill:#5c258d;fill-opacity:1;stroke-width:0.02391831" />
  <path
     d="m 11.93362,1.5890437 -0.11485,-0.11838 c -0.069,-0.0711 -0.18053,-0.0708 -0.24905,7.6e-4 -0.0686,0.0716 -0.0683,0.18728 7.5e-4,0.25836 l 0.0805,0.083 -0.7889,0.81353 -0.7921,-0.81676 c -0.0446,-0.0461 -0.10953,-0.0638 -0.17035,-0.0467 -0.0813,0.0229 -0.16521,0.0346 -0.24951,0.0346 -0.25006,0 -0.48517,-0.1003 -0.66176,-0.28244 L 7.29911,-0.22700629 c -0.0136,-0.014 -0.0207,-0.0318 -0.0207,-0.0514 0,-0.0196 0.007,-0.0374 0.0207,-0.0514 0.0277,-0.0285 0.075,-0.0285 0.10255,-8e-5 l 0.95741,0.98729 c 0.0687,0.0708 0.17961,0.0708 0.24832,-8e-5 l 0.14347,-0.14807 c 0.0333,-0.0343 0.0519,-0.0809 0.0519,-0.12952 0,-0.0486 -0.0186,-0.0953 -0.0519,-0.1296 L 7.47461,-1.0659763 c -0.0136,-0.0141 -0.0208,-0.0319 -0.0208,-0.0515 0,-0.0196 0.007,-0.0374 0.0207,-0.0514 0.0277,-0.0285 0.075,-0.0286 0.10265,8e-5 l 1.27645,1.31608001 c 0.0686,0.0709 0.17961,0.0708 0.24832,0 L 9.24549,-7.8629423e-4 C 9.27869,-0.03508629 9.29739,-0.08178629 9.29739,-0.13030629 c 0,-0.0487 -0.0187,-0.0953 -0.0519,-0.1296 L 7.96913,-1.5760863 c -0.0136,-0.014 -0.0207,-0.0318 -0.0207,-0.0514 0,-0.0196 0.007,-0.0374 0.0207,-0.0514 0.0277,-0.0286 0.0748,-0.0285 0.10265,0 l 1.27636,1.31617001 c 0.0687,0.0708 0.17961,0.0709 0.24832,0 l 0.14356,-0.14807 c 0.0333,-0.0343 0.052,-0.0809 0.052,-0.12961 0,-0.0486 -0.0187,-0.0953 -0.0519,-0.12951 L 8.7828,-1.7570163 c -0.0136,-0.014 -0.0207,-0.0318 -0.0207,-0.0515 0,-0.0196 0.007,-0.0374 0.0207,-0.0513 0.0277,-0.0286 0.075,-0.0286 0.10274,0 l 1.22747,1.26583001 c 0.0504,0.0521 0.12613,0.0675 0.19181,0.0391 0.0657,-0.0284 0.10843,-0.0949 0.10843,-0.16872 V -1.1806663 c 9e-5,-0.0767 0.0611,-0.13922 0.13613,-0.13922 0.0749,0 0.13604,0.0624 0.13604,0.13922 v 1.14631001 c 0,0.0338999958 0.009,0.067 0.0261,0.0958 0.13375,0.22544 0.17136,0.50169 0.1032,0.75796 -0.0169,0.0636 6e-4,0.13161 0.0457,0.17814 l 0.12292,0.12675999 c 0.069,0.0712 0.18044,0.0708 0.24906,-7.7e-4 0.0685,-0.0716 0.0683,-0.18726999 -7.5e-4,-0.25835999 l -0.0535,-0.0552 c 0.0553,-0.305 0.006,-0.62312 -0.14053,-0.89395 V -1.1807063 c 0,-0.27825 -0.21906,-0.50464 -0.48839,-0.50464 -0.26914,8e-5 -0.48819,0.22639 -0.48829,0.50464 v 0.0178 l -0.56195,-0.57954 c 0.01,-0.0637 0.0148,-0.12875 0.0148,-0.19517 0,-0.21963 -0.0542,-0.42632 -0.14961,-0.60675 0.0592,-0.10135 0.0934,-0.21973 0.0934,-0.34629 v -0.59752 c 0,-0.26093 -0.14503,-0.4877 -0.35675,-0.60037 v -0.71285 c 0,-0.89385 -0.33849,-1.65057 -0.97896,-2.18842 -0.16044,-0.13475 -0.33813,-0.25294 -0.52975,-0.35381 -0.0903,-0.93525 -0.85724,-1.66808 -1.78695,-1.66808 -0.92979,0 -1.69667,0.73283 -1.78703,1.66808 -0.19163,0.10087 -0.36931,0.21906 -0.52966,0.35381 -0.64047,0.53785 -0.97906,1.29457 -0.97906,2.18842 v 0.71285 c -0.21162,0.11277 -0.35665,0.33953 -0.35665,0.60037 v 0.59752 c 0,0.19118 0.0781,0.3637 0.20282,0.48684 l -0.0617,0.97112 c -0.0583,0.0109 -0.112,0.0394 -0.15466,0.0835 l -0.23547,0.24285 c -0.0557,0.0574 -0.0863,0.13389001 -0.0863,0.21545001 0,0.072 0.024,0.14007 0.068,0.1946 L 0.11301,1.3259637 C 0.04011,1.4029637 0,1.5046737 0,1.6127737 c 0,0.10982 0.0415,0.21307 0.11668,0.29063 0.0749,0.0773 0.17448,0.1198 0.28025,0.1198 0.1042,0 0.20217,-0.0412 0.27675,-0.11619 L 2.63611,0.07792371 c 0.053,0.0466 0.11952,0.0723 0.19006,0.0723 0.0784,0 0.1521,-0.0315 0.20741,-0.0886 l 0.23557,-0.24285 c 0.0427,-0.0442 0.0705,-0.0996 0.0813,-0.15988 l 1.01832,-0.0689 c 0.0293,-0.002 0.0575,-0.008 0.084,-0.0183 0.1508,0.0726 0.30977,0.1298 0.47508,0.17033 v 0.33945 H 3.75441 c -1.05336,0 -1.91032,0.88423 -1.91032,1.97106999 v 0.64909 c 0,0.17091 0.13411,0.31004 0.29895,0.31004 h 7.32444 c 0.16494,0 0.29905,-0.13913 0.29905,-0.31004 v -0.5446 c 0.0416,-0.004 0.083,-0.01 0.12402,-0.0176 l 0.75688,0.78042 c 0.0574,0.0592 0.13375,0.0918 0.21475,0.0918 0.0811,0 0.15732,-0.0326 0.21474,-0.0918 l 0.85678,-0.88357 c 0.0571,-0.0588 0.0897,-0.14037 0.0897,-0.22373 9e-5,-0.0833 -0.0326,-0.16491 -0.0896,-0.22372 z M 6.68269,-0.25765629 c 0.084,-0.0205 0.16641,-0.0454 0.24686,-0.0745 -0.002,0.0177 -0.003,0.0356 -0.003,0.0538 0,0.11734 0.0443,0.22763 0.12466,0.31061 l 0.0481,0.0495 H 6.68322 Z M 9.13378,-2.1190063 c -0.0801,-0.0826 -0.1865,-0.12809 -0.29969,-0.12809 -0.11311,0 -0.21952,0.0455 -0.29969,0.12818 -0.0722,0.0745 -0.11522,0.17101 -0.1232,0.27483 l -0.0912,-0.0939 c -0.0801,-0.0827 -0.18649,-0.12818 -0.2996,-0.12818 -0.1131,0 -0.21951,0.0456 -0.29969,0.12818 -0.0804,0.0829 -0.12457,0.19318 -0.12457,0.31061 0,0.0265 0.002,0.0528 0.007,0.0785 -0.0251,-0.005 -0.0509,-0.007 -0.077,-0.007 -0.0134,0 -0.0267,6.1e-4 -0.0399,0.002 -0.0531,-0.11647 -0.0828,-0.24646 -0.0828,-0.3834 0,-0.49941 0.39436,-0.90555 0.87916,-0.90555 0.42876,0 0.78661,0.31774 0.86366,0.73664 z m -0.0284,-0.77157 c 0,0.003 -3e-4,0.006 -3e-4,0.008 -0.14457,-0.13418 -0.31978,-0.23372 -0.51342,-0.28558 v -0.6312 H 8.7975 c 0.1698,0 0.30785,0.1395 0.30785,0.31098 z m -3.30015,-5.75563 c 0.67652,0 1.24581,0.48208 1.40148,1.13042 -0.42527,-0.15921 -0.90099,-0.24323 -1.40148,-0.24323 -0.50049,0 -0.97622,0.084 -1.40158,0.24323 0.15576,-0.64834 0.72505,-1.13042 1.40158,-1.13042 z m -3.30016,5.15811 c 0,-0.17148 0.13815,-0.31098 0.30786,-0.31098 h 0.20584 v 0.96912 c -0.14172,0.004 -0.28492,0.0238 -0.42637,0.0606 -0.0187,0.005 -0.0366,0.0116 -0.0536,0.0197 -0.0215,-0.0423 -0.0338,-0.0901 -0.0338,-0.14093 z m -2.06984,5.12605 c -0.002,0.002 -0.004,0.004 -0.006,0.006 -0.0109,0.0112 -0.0234,0.0136 -0.032,0.0136 -0.009,0 -0.021,-0.002 -0.0319,-0.0136 -0.0106,-0.0107 -0.0128,-0.023 -0.0128,-0.0314 0,-0.008 0.002,-0.0206 0.0128,-0.0315 0.002,-0.002 0.004,-0.004 0.006,-0.007 l 1.76364,-2.01208999 0.25033,0.25808 z m 2.39081,-1.87752999 -0.63157,-0.65128 0.15218,-0.15692001 0.63158,0.65128001 z m 1.4868,-0.53271 -1.12546,0.0761 -0.0178,-0.0184 0.63093,-0.38673001 c 0.0838,-0.0513 0.11155,-0.1633 0.062,-0.25018 -0.0494,-0.0869 -0.15741,-0.11572 -0.24116,-0.0644 L 2.91492,-0.98290629 3.33377,-1.7095563 c 0.0499,-0.0867 0.0228,-0.1988 -0.0608,-0.25066 -0.0835,-0.0518 -0.19153,-0.0235 -0.24153,0.0631 l -0.37601,0.65243 -0.0192,-0.0199 0.0737,-1.1583 c 0.11797,-0.0282 0.23676,-0.0424 0.35363,-0.0424 0.35913,0 0.68716,0.13446 0.92383,0.37845 0.31684,0.32669 0.43738,0.81601 0.32547,1.31456001 z M 4.23564,-2.3459663 c -0.23291,-0.24019 -0.53287,-0.39711 -0.86467,-0.45706 v -1.69444 h 0.69148 c 0.0973,0 0.17612,-0.0817 0.17612,-0.18271 0,-0.10087 -0.0788,-0.18271 -0.17612,-0.18271 H 3.33979 c -0.17705,0 -0.32107,0.14902 -0.32107,0.33221 v 0.36618 H 2.86168 v -0.63682 c 0,-0.77975 0.29336,-1.43827 0.84843,-1.90446 0.52819,-0.44355 1.27223,-0.68792 2.09507,-0.68792 0.82283,0 1.56687,0.24437 2.09506,0.68792 0.55498,0.46619 0.84834,1.12471 0.84834,1.90446 v 0.63682 H 8.59163 v -0.36618 c 0,-0.18319 -0.14402,-0.33221 -0.32106,-0.33221 h -0.7556 c -0.31592,0 -0.61708,-0.17281 -0.78578,-0.45078 -0.059,-0.0976 -0.16062,-0.15578 -0.27198,-0.15578 -0.11127,0 -0.21301,0.0582 -0.27199,0.15559 -0.16869,0.27816 -0.46976,0.45107 -0.78578,0.45107 H 4.88437 c -0.0972,0 -0.17613,0.0817 -0.17613,0.18271 0,0.10087 0.0789,0.1827 0.17613,0.1827 h 0.51507 c 0.42005,0 0.82091,-0.22115 1.05777,-0.58048 0.23685,0.35924 0.63772,0.58048 1.05776,0.58048 h 0.72441 v 1.29001 c -0.65919,0.0236 -1.18848,0.584 -1.18848,1.26992 0,0.20327 0.0468,0.3954 0.12943,0.56602 -0.0509,0.0737 -0.0788,0.16149 -0.0788,0.25399 0,0.0959 0.0301,0.18689001 0.0849,0.26236001 -0.3162,0.19118 -0.68422,0.30109 -1.07702,0.30109 H 5.50123 c -0.29694,0 -0.57975,-0.0629 -0.83669,-0.17605 C 4.78874,-1.3390663 4.63134,-1.9380163 4.23569,-2.3459663 Z m 0.70138,2.79307001 c 0.18916,0 0.3429,-0.15911 0.3429,-0.35466 v -0.29129 c 0.0729,0.007 0.14668,0.0103 0.22126,0.0103 h 0.60818 c 0.0745,0 0.14824,-0.004 0.22107,-0.0103 v 0.29129 c 0,0.19555 0.15384,0.35466 0.34299,0.35466 h 0.0417 L 5.80514,1.8924137 4.89515,0.44710371 Z M 2.19616,2.6464737 v -0.59371 c 0,-0.88538 0.69891,-1.60565999 1.55807,-1.60565999 h 0.019 l 1.3847,2.19936999 z m 4.25619,0 0.3938,-0.6255 c 0.0532,-0.0845 0.0303,-0.19765 -0.0511,-0.25284 -0.0815,-0.0552 -0.19062,-0.0314 -0.24383,0.053 l -0.40197,0.63853 c -0.0624,0.0992 -0.16181,0.16672 -0.27418,0.1868 h -0.1399 c -0.11228,-0.0201 -0.21171,-0.0876 -0.27409,-0.1868 L 4.19391,0.44709371 H 4.47443 L 5.65768,2.3265237 c 0.0326,0.0516 0.088,0.0827 0.14751,0.0827 0.0594,0 0.11494,-0.0311 0.14741,-0.0827 L 7.13585,0.44709371 H 7.41637 L 6.99605,1.1146537 c -0.0532,0.0845 -0.0303,0.19774 0.0512,0.25294 0.0814,0.0552 0.19052,0.0314 0.24373,-0.0531 l 0.395,-0.62730999 1.054,1.08693999 c 0.18649,0.19232 0.42022,0.31802 0.67414,0.36627 v 0.50607 z m 0,0"
     id="path902"
     inkscape:connector-curvature="0"
     style="fill:#5c258d;fill-opacity:1;stroke-width:0.02391831" />
</svg>
