<svg height="512pt" viewBox="-32 0 511 512" width="512pt" xmlns="http://www.w3.org/2000/svg"><path d="m204.6875 296.3125c.902344 7.804688 3.210938 15.441406 6.816406 22.414062 1.902344 3.675782 6.425782 5.117188 10.105469 3.214844s5.121094-6.425781 3.21875-10.105468c-17.035156-32.945313 6.828125-72.984376 44.46875-72.984376 27.597656 0 50.046875 22.449219 50.046875 50.042969 0 37.554688-39.945312 61.554688-72.984375 44.472657-3.679687-1.902344-8.207031-.460938-10.109375 3.21875-1.898438 3.679687-.460938 8.203124 3.21875 10.105468 42.9375 22.199219 94.875-8.96875 94.875-57.796875 0-35.867187-29.179688-65.042969-65.042969-65.042969-33.363281 0-60.921875 25.25-64.613281 57.636719-3.6875-32.386719-31.25-57.636719-64.609375-57.636719-35.867187 0-65.042969 29.179688-65.042969 65.042969 0 35.867188 29.175782 65.042969 65.042969 65.042969 33.355469.003906 60.914063-25.242188 64.609375-57.625zm-114.652344-7.417969c0-27.59375 22.449219-50.042969 50.042969-50.042969s50.042969 22.449219 50.042969 50.042969-22.449219 50.046875-50.042969 50.046875-50.042969-22.453125-50.042969-50.046875zm0 0"/><path d="m140.078125 272.804688c4.140625 0 7.5-3.359376 7.5-7.5v-12.589844c0-4.144532-3.359375-7.5-7.5-7.5s-7.5 3.355468-7.5 7.5v12.589844c0 4.140624 3.359375 7.5 7.5 7.5zm0 0"/><path d="m156.757812 279.714844c1.921876 0 3.839844-.734375 5.304688-2.199219l8.902344-8.902344c2.929687-2.925781 2.929687-7.675781 0-10.605469-2.929688-2.929687-7.675782-2.929687-10.605469 0l-8.902344 8.902344c-4.738281 4.738282-1.316406 12.804688 5.300781 12.804688zm0 0"/><path d="m156.167969 288.894531c0 4.144531 3.359375 7.5 7.5 7.5h12.589843c4.144532 0 7.5-3.355469 7.5-7.5 0-4.140625-3.355468-7.5-7.5-7.5h-12.589843c-4.140625 0-7.5 3.359375-7.5 7.5zm0 0"/><path d="m160.359375 319.78125c2.929687 2.929688 7.679687 2.929688 10.605469 0 2.929687-2.925781 2.929687-7.675781 0-10.605469l-8.902344-8.902343c-2.929688-2.929688-7.679688-2.929688-10.605469 0-2.929687 2.929687-2.929687 7.679687 0 10.605468zm0 0"/><path d="m147.578125 325.078125v-12.589844c0-4.144531-3.359375-7.5-7.5-7.5s-7.5 3.355469-7.5 7.5v12.589844c0 4.140625 3.359375 7.5 7.5 7.5s7.5-3.359375 7.5-7.5zm0 0"/><path d="m118.09375 300.273438-8.902344 8.902343c-2.929687 2.929688-2.929687 7.679688 0 10.605469 2.925782 2.929688 7.675782 2.929688 10.605469 0l8.902344-8.902344c2.929687-2.929687 2.929687-7.675781 0-10.605468-2.929688-2.929688-7.675781-2.929688-10.605469 0zm0 0"/><path d="m123.988281 288.894531c0-4.140625-3.359375-7.5-7.5-7.5h-12.589843c-4.144532 0-7.5 3.359375-7.5 7.5 0 4.144531 3.355468 7.5 7.5 7.5h12.589843c4.140625 0 7.5-3.355469 7.5-7.5zm0 0"/><path d="m118.09375 277.515625c2.925781 2.929687 7.675781 2.929687 10.605469 0 2.929687-2.925781 2.929687-7.675781 0-10.605469l-8.902344-8.902344c-2.929687-2.929687-7.679687-2.929687-10.605469 0-2.929687 2.929688-2.929687 7.679688 0 10.605469zm0 0"/><path d="m269.300781 272.804688c4.140625 0 7.5-3.359376 7.5-7.5v-12.589844c0-4.144532-3.359375-7.5-7.5-7.5-4.144531 0-7.5 3.355468-7.5 7.5v12.589844c0 4.140624 3.355469 7.5 7.5 7.5zm0 0"/><path d="m249.019531 258.007812c-2.929687-2.929687-7.679687-2.929687-10.609375 0-2.925781 2.929688-2.925781 7.679688 0 10.605469l8.90625 8.902344c1.460938 1.464844 3.382813 2.199219 5.300782 2.199219 6.621093 0 10.042968-8.066406 5.304687-12.804688zm0 0"/><path d="m225.617188 288.894531c0 4.144531 3.359374 7.5 7.5 7.5h12.589843c4.144531 0 7.5-3.355469 7.5-7.5 0-4.140625-3.355469-7.5-7.5-7.5h-12.589843c-4.140626 0-7.5 3.359375-7.5 7.5zm0 0"/><path d="m247.316406 300.273438-8.90625 8.902343c-2.925781 2.929688-2.925781 7.679688 0 10.605469 2.929688 2.929688 7.679688 2.929688 10.609375 0l8.902344-8.902344c2.929687-2.929687 2.929687-7.675781 0-10.605468-2.929687-2.929688-7.679687-2.929688-10.605469 0zm0 0"/><path d="m261.800781 325.078125c0 4.140625 3.355469 7.5 7.5 7.5 4.140625 0 7.5-3.359375 7.5-7.5v-12.589844c0-4.144531-3.359375-7.5-7.5-7.5-4.144531 0-7.5 3.355469-7.5 7.5zm0 0"/><path d="m280.679688 310.878906 8.902343 8.902344c1.460938 1.464844 3.382813 2.199219 5.300781 2.199219 6.621094 0 10.042969-8.066407 5.304688-12.804688l-8.902344-8.902343c-2.929687-2.929688-7.679687-2.929688-10.605468 0-2.929688 2.929687-2.929688 7.679687 0 10.605468zm0 0"/><path d="m285.390625 288.894531c0 4.144531 3.359375 7.5 7.5 7.5h12.589844c4.140625 0 7.5-3.355469 7.5-7.5 0-4.140625-3.359375-7.5-7.5-7.5h-12.589844c-4.140625 0-7.5 3.359375-7.5 7.5zm0 0"/><path d="m289.582031 258.007812-8.902343 8.902344c-2.929688 2.929688-2.929688 7.675782 0 10.605469 2.925781 2.929687 7.675781 2.929687 10.605468 0l8.902344-8.902344c2.929688-2.929687 2.929688-7.675781 0-10.605469-2.929688-2.929687-7.679688-2.929687-10.605469 0zm0 0"/><path d="m204.6875 379.277344c-55.613281 0-67.289062 23.03125-67.289062 42.347656 0 30.863281 30.1875 55.972656 67.289062 55.972656 37.105469 0 67.289062-25.109375 67.289062-55.972656 0-19.316406-11.671874-42.347656-67.289062-42.347656zm0 83.320312c-28.832031 0-52.289062-18.378906-52.289062-40.972656 0-6.761719 0-27.347656 52.289062-27.347656s52.289062 20.585937 52.289062 27.347656c0 22.59375-23.457031 40.972656-52.289062 40.972656zm0 0"/><path d="m229.90625 420.9375h-53.648438c-4.140624 0-7.5 3.359375-7.5 7.5 0 4.144531 3.359376 7.5 7.5 7.5h53.648438c4.140625 0 7.5-3.355469 7.5-7.5 0-4.140625-3.359375-7.5-7.5-7.5zm0 0"/><path d="m390.441406 159.539062c-9.808594-21.246093-23.164062-40.539062-39.285156-57.121093-21.738281-60.125-79.84375-102.417969-146.378906-102.417969-65.449219 0-124.019532 41.078125-146.378906 102.417969-35.078126 36.066406-57.046876 84.976562-57.898438 138.910156v.234375c.890625 56.40625 24.820312 107.515625 63.261719 144.234375 5.472656 74.316406 94.140625 126.203125 141.011719 126.203125 23.640624 0 60.617187-14.253906 90.765624-38.964844 2.929688 29.875 46.160157 52.828125 68.683594 29.09375 10.726563 11.300782 30.644532 14.671875 50.128906.515625 19.683594-14.304687 22.292969-34.480469 15.003907-47.832031 13.746093-6.519531 23.496093-24.371094 15.972656-47.515625-7.515625-23.140625-25.898437-31.855469-40.851563-29.050781-1.617187-12.480469-11.464843-24.753906-28.597656-28.617188 21.125-32.246094 32.558594-69.332031 33.171875-108.058594.199219-10.839843-1.90625-30.332031-6.375-47.699218-1.03125-4.011719-5.121093-6.425782-9.132812-5.394532-4.011719 1.035157-6.425781 5.121094-5.394531 9.132813 3.671874 14.269531 5.660156 29.019531 5.902343 43.839844-.640625 38.769531-12.980469 75.765625-35.726562 107.234375-3.585938.378906-6.90625 1.09375-9.957031 2.097656l2.640624-35.855469c6.433594-87.332031-41.519531-166.878906-119.820312-201.332031 45.828125-7.265625 92.808594 2.457031 132.164062 27.898438 5.0625 7.738281 9.589844 15.917968 13.46875 24.328124 1.738282 3.761719 6.191407 5.40625 9.953126 3.667969 3.761718-1.734375 5.40625-6.1875 3.667968-9.949219zm-332.042968-57.121093c-35.078126 36.066406-57.046876 84.976562-57.898438 138.910156m320.828125-164.496094c-69.410156-48.253906-162.492187-49.269531-233.394531.433594 55.695312-82.738281 177.375-82.992187 233.394531-.433594zm-242.542969 308.761719-5.285156-71.785156c-3.035156-41.230469 6.738281-81.097656 28.265625-115.285156 2.207031-3.503907 1.152344-8.136719-2.351563-10.34375-3.503906-2.207032-8.136718-1.15625-10.34375 2.351562-23.644531 37.554688-33.777343 80.820312-30.53125 124.390625.214844 3.453125-1.058593-14.367187 3.492188 47.429687-29.417969-33.609374-45.796875-75.847656-46.53125-120.90625 1.699219-103.914062 87.746094-186.949218 190.832031-186.121093 49.984375.402343 97.054688 20.449219 131.800781 54.96875.339844.636719.765626 1.195312 1.25 1.691406-79.101562-33.058594-170.023437-12.785156-227.234374 48.574219-2.824219 3.03125-2.660157 7.777344.371093 10.601562 3.03125 2.824219 7.777344 2.660156 10.601563-.371094 22.6875-24.335937 50.972656-41.59375 81.652344-51.0625 84.699218 26.148438 137.703124 106.8125 131.273437 194.097657-3.625 49.230469-3.398437 46.667969-3.515625 46.796875-4.851562 5.128906-7.75 11.351562-8.5625 17.625-37.492188-7.027344-60.128906 53.988281-28.308594 74.640625-28.542968 27.464843-67.949218 44.113281-90.886718 44.113281-40.320313 0-121.246094-47.046875-125.988282-111.40625zm342.53125 56.308594c-.015625.003906-1.800781.5625-7.441406.261718-7.621094-.425781-10.914062 9.609376-4.480469 13.785157 4.738281 3.070312 5.855469 4.570312 5.867188 4.585937 4.378906 6.023438 5.402343 18.980469-9.726563 29.972656-6.945312 5.046876-13.976562 7.21875-20.335937 6.277344-6.875-1.015625-10.296875-5.066406-11.179688-6.285156-.011719-.015625-1.09375-1.542969-2.550781-6.996094-1.972656-7.398437-12.519531-7.394531-14.492188 0-1.453124 5.449219-2.535156 6.980469-2.546874 6.996094-5.027344 6.917969-17.519532 10.175781-31.515626.007812-15.128906-10.992187-14.105468-23.949218-9.726562-29.976562.007812-.015625 1.128906-1.511719 5.867188-4.585938 6.429687-4.167968 3.144531-14.199218-4.480469-13.78125-1.976563.105469-6.070313.25-7.902344-.425781-8.410156-3.175781-14.371094-14.164062-9.289063-29.804687 5.78125-17.789063 18.421876-20.820313 25.503907-18.519532 1.476562.480469 4.957031 3.179688 6.171875 4.164063 5.984375 4.855469 14.445312-1.453125 11.726562-8.515625-2.28125-5.921875-2.050781-7.625-2.050781-7.160156 0-3.371094 1.605469-8.386719 6.105469-12.363282 5.21875-4.601562 12.398437-6.167968 19.382812-6.167968 18.703125 0 25.492188 11.082031 25.492188 18.53125 0 .019531-.023438 1.890625-2.050782 7.160156-2.75 7.140625 5.78125 13.339844 11.726563 8.515625 4.382813-3.554687 6.15625-4.15625 6.171875-4.164063 7.085938-2.296874 19.722656.730469 25.5 18.519532 5.78125 17.785156-2.660156 27.667968-9.746094 29.96875zm0 0"/><path d="m396.324219 426.152344h-11.125c-.25-.691406-.53125-1.371094-.84375-2.027344l7.871093-7.867188c2.925782-2.929687 2.925782-7.679687 0-10.609374-2.929687-2.925782-7.679687-2.925782-10.609374 0l-7.867188 7.871093c-.660156-.3125-1.335938-.59375-2.027344-.84375v-11.125c0-4.144531-3.355468-7.5-7.5-7.5-4.140625 0-7.5 3.355469-7.5 7.5v11.125c-.691406.25-1.367187.527344-2.023437.84375l-7.871094-7.871093c-2.929687-2.929688-7.675781-2.929688-10.605469 0-2.929687 2.929687-2.929687 7.679687 0 10.605468l7.867188 7.871094c-.3125.65625-.59375 1.335938-.839844 2.027344h-11.125c-4.144531 0-7.5 3.355468-7.5 7.5 0 4.140625 3.355469 7.5 7.5 7.5h11.125c.246094.691406.527344 1.367187.839844 2.023437l-7.867188 7.871094c-2.929687 2.929687-2.929687 7.675781 0 10.605469 2.929688 2.929687 7.679688 2.929687 10.605469 0l7.871094-7.871094c.65625.316406 1.332031.597656 2.023437.84375v11.125c0 4.144531 3.359375 7.5 7.5 7.5 4.144532 0 7.5-3.355469 7.5-7.5v-11.125c.691406-.246094 1.367188-.527344 2.027344-.84375l7.871094 7.871094c2.925781 2.929687 7.675781 2.929687 10.605468 0 2.929688-2.929688 2.929688-7.679688 0-10.605469l-7.871093-7.871094c.3125-.65625.59375-1.332031.84375-2.023437h11.125c4.140625 0 7.5-3.359375 7.5-7.5 0-4.144532-3.359375-7.5-7.5-7.5zm-39.378907 7.5c0-4.015625 3.265626-7.277344 7.277344-7.277344 4.015625 0 7.277344 3.265625 7.277344 7.277344 0 4.011718-3.265625 7.277344-7.277344 7.277344-4.011718 0-7.277344-3.265626-7.277344-7.277344zm0 0"/></svg>