<?xml version="1.0" encoding="UTF-8" standalone="no"?>
<svg
   xmlns:dc="http://purl.org/dc/elements/1.1/"
   xmlns:cc="http://creativecommons.org/ns#"
   xmlns:rdf="http://www.w3.org/1999/02/22-rdf-syntax-ns#"
   xmlns:svg="http://www.w3.org/2000/svg"
   xmlns="http://www.w3.org/2000/svg"
   xmlns:sodipodi="http://sodipodi.sourceforge.net/DTD/sodipodi-0.dtd"
   xmlns:inkscape="http://www.inkscape.org/namespaces/inkscape"
   height="19pt"
   viewBox="0 -10 105.20279 19"
   width="105pt"
   version="1.1"
   id="svg3725"
   sodipodi:docname="star.svg"
   inkscape:version="0.92.5 (2060ec1f9f, 2020-04-08)">
  <metadata
     id="metadata3731">
    <rdf:RDF>
      <cc:Work
         rdf:about="">
        <dc:format>image/svg+xml</dc:format>
        <dc:type
           rdf:resource="http://purl.org/dc/dcmitype/StillImage" />
        <dc:title></dc:title>
      </cc:Work>
    </rdf:RDF>
  </metadata>
  <defs
     id="defs3729" />
  <sodipodi:namedview
     pagecolor="#ffffff"
     bordercolor="#666666"
     borderopacity="1"
     objecttolerance="10"
     gridtolerance="10"
     guidetolerance="10"
     inkscape:pageopacity="0"
     inkscape:pageshadow="2"
     inkscape:window-width="1680"
     inkscape:window-height="987"
     id="namedview3727"
     showgrid="false"
     inkscape:zoom="8.1448236"
     inkscape:cx="60.454999"
     inkscape:cy="2.516205"
     inkscape:window-x="-8"
     inkscape:window-y="-8"
     inkscape:window-maximized="1"
     inkscape:current-layer="svg3725"
     fit-margin-top="0"
     fit-margin-left="0"
     fit-margin-right="0"
     fit-margin-bottom="0" />
  <path
     d="m 19.866333,-2.6773142 c -0.11806,-0.38107 -0.44197,-0.65172 -0.82517,-0.68776 l -5.20532,-0.4932 -2.058321,-5.02724 c -0.15178,-0.3684301 -0.497421,-0.6069197 -0.881462,-0.6069197 -0.384031,0 -0.729671,0.2384896 -0.881451,0.6077797 l -2.0583204,5.02638 -5.2061398,0.4932 c -0.3825198,0.0369 -0.7055996,0.30669 -0.8243496,0.68776 -0.11874,0.38106 -0.009,0.79903 0.2802899,1.0625 l 3.9345995,3.6007603 -1.16022,5.3330604 c -0.0849,0.39212 0.0609,0.79746 0.37275,1.03264 0.1676,0.12636 0.36367,0.19068 0.5614,0.19068 0.17048,0 0.33959,-0.048 0.49136,-0.14272 l 4.4900814,-2.80028 4.488443,2.80028 c 0.32844,0.20618 0.74247,0.18737 1.05358,-0.048 0.31193,-0.2359 0.45765,-0.64138 0.37275,-1.03264 l -1.16022,-5.3330604 3.9346,-3.6000403 c 0.28937,-0.26419 0.39986,-0.68144 0.28112,-1.06322 z m 0,0"
     id="path3723"
     inkscape:connector-curvature="0"
     style="fill:#ffc107;stroke-width:0.03598284" />
  <path
     d="m 40.15544,-2.6769601 c -0.11806,-0.3810701 -0.441969,-0.65172 -0.82517,-0.6877601 l -5.20532,-0.4931999 -2.058319,-5.0272403 c -0.15178,-0.3684299 -0.49742,-0.6069195 -0.88146,-0.6069195 -0.38403,0 -0.72967,0.2384896 -0.88145,0.6077795 l -2.05832,5.0263803 -5.20614,0.4931999 c -0.38252,0.0369 -0.7056,0.30669 -0.82435,0.6877601 -0.11874,0.38106 -0.009,0.79903 0.28029,1.0624999 l 3.9346,3.6007605 -1.16022,5.3330604 c -0.0849,0.39212 0.0609,0.7974596 0.37275,1.0326396 0.1676,0.1263606 0.36367,0.1906801 0.5614,0.1906801 0.17048,0 0.33959,-0.048003 0.49136,-0.1427196 l 4.49008,-2.8002801 4.488439,2.8002801 c 0.32844,0.2061794 0.74247,0.1873699 1.053581,-0.048002 0.31193,-0.2359 0.45765,-0.6413801 0.37275,-1.0326397 l -1.16022,-5.3330603 3.9346,-3.6000407 c 0.28937,-0.2641897 0.39986,-0.68144 0.281119,-1.06322 z m 0,0"
     id="path3723-7"
     inkscape:connector-curvature="0"
     style="fill:#ffc107;stroke-width:0.03598284" />
  <path
     d="m 61.195996,-2.6769601 c -0.11806,-0.3810701 -0.441969,-0.65172 -0.82517,-0.6877601 l -5.20532,-0.4931999 -2.058319,-5.02724 c -0.15178,-0.3684302 -0.49742,-0.6069198 -0.88146,-0.6069198 -0.38403,0 -0.72967,0.2384896 -0.88145,0.6077798 l -2.05832,5.02638 -5.20614,0.4931999 c -0.38252,0.0369 -0.7056,0.30669 -0.82435,0.6877601 -0.11874,0.38106 -0.009,0.79903 0.28029,1.0624999 l 3.9346,3.6007605 -1.16022,5.3330604 c -0.0849,0.39212 0.0609,0.7974596 0.37275,1.0326396 0.1676,0.1263606 0.36367,0.1906801 0.5614,0.1906801 0.17048,0 0.33959,-0.048003 0.49136,-0.1427196 l 4.49008,-2.8002801 4.488439,2.8002801 c 0.32844,0.2061794 0.74247,0.1873699 1.053581,-0.048002 0.31193,-0.2359 0.45765,-0.6413801 0.37275,-1.0326397 l -1.16022,-5.3330603 3.9346,-3.6000407 c 0.28937,-0.2641897 0.39986,-0.68144 0.281119,-1.06322 z m 0,0"
     id="path3723-6"
     inkscape:connector-curvature="0"
     style="fill:#ffc107;stroke-width:0.03598284" />
  <path
     d="m 82.236552,-2.67696 c -0.11806,-0.3810702 -0.441969,-0.6517201 -0.82517,-0.6877602 L 76.206062,-3.8579201 74.147743,-8.88516 c -0.15178,-0.3684303 -0.49742,-0.6069199 -0.88146,-0.6069199 -0.38403,0 -0.72967,0.2384896 -0.88145,0.6077799 l -2.05832,5.0263799 -5.20614,0.4931999 c -0.38252,0.0369 -0.7056,0.30669 -0.82435,0.6877602 -0.11874,0.38106 -0.009,0.79903 0.28029,1.0624999 l 3.9346,3.6007605 -1.16022,5.3330606 c -0.0849,0.39212 0.0609,0.797459 0.37275,1.032639 0.1676,0.126361 0.36367,0.19068 0.5614,0.19068 0.17048,0 0.33959,-0.048 0.49136,-0.142719 l 4.49008,-2.8002802 4.488439,2.8002802 c 0.32844,0.206179 0.74247,0.18737 1.053581,-0.048 0.31193,-0.2359 0.45765,-0.64138 0.37275,-1.03264 l -1.16022,-5.3330602 3.9346,-3.6000406 c 0.28937,-0.2641897 0.39986,-0.68144 0.281119,-1.06322 z m 0,0"
     id="path3723-1"
     inkscape:connector-curvature="0"
     style="fill:#ffc107;stroke-width:0.03598284" />
  <path
     d="m 103.27698,-2.67696 c -0.11806,-0.3810701 -0.44197,-0.65172 -0.82517,-0.6877601 L 97.246618,-3.85792 95.188299,-8.8851596 c -0.15178,-0.3684307 -0.49742,-0.6069203 -0.88146,-0.6069203 -0.38403,0 -0.72967,0.2384896 -0.88145,0.6077803 l -2.05832,5.0263796 -5.20614,0.4931999 c -0.38252,0.0369 -0.7056,0.30669 -0.82435,0.6877601 -0.11874,0.38106 -0.009,0.79903 0.28029,1.0624999 l 3.9346,3.6007604 -1.16022,5.3330605 c -0.0849,0.39212 0.0609,0.7974596 0.37275,1.0326396 0.1676,0.1263606 0.36367,0.1906801 0.5614,0.1906801 0.17048,0 0.33959,-0.048003 0.49136,-0.1427196 l 4.49008,-2.8002801 4.488439,2.8002801 c 0.32844,0.2061794 0.74247,0.1873699 1.053581,-0.048002 0.311921,-0.2359 0.457631,-0.6413801 0.372741,-1.0326397 l -1.160211,-5.3330604 3.934471,-3.6000406 c 0.28937,-0.2641897 0.39986,-0.68144 0.28112,-1.06322 z m 0,0"
     id="path3723-2"
     inkscape:connector-curvature="0"
     style="fill:#ffc107;stroke-width:0.03598284" />
</svg>
