<svg height="512pt" viewBox="0 0 512 512.00155" width="512pt" xmlns="http://www.w3.org/2000/svg"><path d="m234.820312 331.785156c-2.945312.003906-5.917968-.863281-8.523437-2.664062-6.785156-4.699219-8.5-13.996094-3.84375-20.808594l206.488281-301.78125c3.441406-5.03125 9.585938-7.480469 15.546875-6.191406 5.960938 1.285156 10.546875 6.050781 11.605469 12.058594 10.351562 58.710937-3.605469 124.300781-36.421875 171.167968l-88.988281 127.089844c-4.75 6.785156-14.105469 8.433594-20.890625 3.683594-20.324219-14.230469-48.441407-9.273438-62.671875 11.050781-2.917969 4.164063-7.570313 6.394531-12.300782 6.394531zm49.269532-55.558594c10.070312 0 20.203125 2.019532 29.761718 6.167969l81.246094-116.035156c20.902344-29.851563 32.949219-68.578125 34.273438-107.328125l-148.664063 217.269531c1.128907-.050781 2.253907-.074219 3.382813-.074219zm0 0"/><path d="m165.921875 499.5625c-14.855469 0-29.84375-4.390625-42.910156-13.535156-33.878907-23.722656-42.140625-70.582032-18.421875-104.460938s70.582031-42.140625 104.460937-18.417968c33.875 23.71875 42.140625 70.578124 18.417969 104.457031-14.570312 20.8125-37.882812 31.957031-61.546875 31.957031zm-36.757813-100.789062c-14.230468 20.328124-9.273437 48.445312 11.054688 62.679687 20.328125 14.230469 48.441406 9.273437 62.675781-11.054687 14.234375-20.328126 9.277344-48.445313-11.050781-62.675782-20.328125-14.234375-48.445312-9.277344-62.679688 11.050782zm0 0"/><path d="m200.40625 390.4375c-2.582031 0-5.191406-.667969-7.578125-2.066406-7.144531-4.191406-9.539063-13.382813-5.34375-20.527344l34.414063-58.648438c4.191406-7.144531 13.382812-9.535156 20.527343-5.347656 7.144531 4.195313 9.539063 13.386719 5.34375 20.53125l-34.414062 58.648438c-2.789063 4.757812-7.804688 7.410156-12.949219 7.410156zm0 0"/><path d="m277.179688 331.785156c-4.730469 0-9.382813-2.230468-12.300782-6.394531-14.230468-20.328125-42.347656-25.285156-62.675781-11.054687-6.785156 4.753906-16.136719 3.105468-20.886719-3.683594l-88.988281-127.085938c-32.820313-46.867187-46.773437-112.457031-36.421875-171.167968 1.058594-6.007813 5.644531-10.773438 11.605469-12.058594 5.957031-1.285156 12.105469 1.160156 15.546875 6.191406l206.484375 301.785156c4.660156 6.8125 2.945312 16.105469-3.839844 20.804688-2.601563 1.800781-5.578125 2.664062-8.523437 2.664062zm-194.550782-272.757812c1.324219 38.753906 13.371094 77.480468 34.269532 107.332031l81.25 116.035156c10.625-4.617187 21.96875-6.597656 33.140624-6.09375zm0 0"/><path d="m346.179688 499.617188c-4.375 0-8.78125-.382813-13.183594-1.15625-19.730469-3.480469-36.921875-14.433594-48.414063-30.847657-11.492187-16.410156-15.902343-36.3125-12.425781-56.042969 3.480469-19.730468 14.433594-36.921874 30.84375-48.414062 33.878906-23.722656 80.738281-15.457031 104.460938 18.417969 23.722656 33.878906 15.457031 80.738281-18.421876 104.460937-12.75 8.929688-27.609374 13.582032-42.859374 13.582032zm-.222657-120.007813c-8.914062 0-17.910156 2.632813-25.75 8.121094-9.84375 6.898437-16.417969 17.210937-18.503906 29.050781-2.089844 11.839844.558594 23.78125 7.453125 33.628906s17.210938 16.417969 29.050781 18.507813c11.835938 2.082031 23.78125-.5625 33.625-7.457031 9.847657-6.894532 16.421875-17.210938 18.507813-29.050782 2.089844-11.835937-.558594-23.777344-7.453125-33.625-8.746094-12.488281-22.730469-19.175781-36.929688-19.175781zm-34.351562-4.164063h.011719zm0 0"/><path d="m311.59375 390.4375c-5.144531 0-10.15625-2.652344-12.949219-7.410156l-34.414062-58.648438c-4.195313-7.148437-1.800781-16.335937 5.34375-20.53125 7.144531-4.191406 16.335937-1.796875 20.53125 5.347656l34.410156 58.648438c4.195313 7.144531 1.800781 16.335938-5.34375 20.527344-2.386719 1.398437-5 2.066406-7.578125 2.066406zm0 0"/><path d="m397.628906 512c-4.59375 0-9.128906-2.105469-12.070312-6.082031l-17.210938-23.265625c-4.925781-6.660156-3.519531-16.054688 3.140625-20.980469 6.660157-4.925781 16.054688-3.519531 20.980469 3.140625l17.207031 23.265625c4.925781 6.660156 3.519531 16.054687-3.140625 20.980469-2.679687 1.984375-5.808594 2.941406-8.90625 2.941406zm0 0"/><path d="m105.988281 512c-3.101562 0-6.226562-.957031-8.90625-2.941406-6.664062-4.925782-8.066406-14.316406-3.144531-20.980469l17.207031-23.265625c4.929688-6.660156 14.320313-8.066406 20.980469-3.140625 6.660156 4.929687 8.066406 14.320313 3.140625 20.980469l-17.207031 23.265625c-2.941406 3.976562-7.476563 6.082031-12.070313 6.082031zm0 0"/><path d="m136 150c-26.351562 0-46.570312-8.183594-66.125-16.09375-17.671875-7.152344-34.363281-13.90625-54.875-13.90625-8.285156 0-15-6.714844-15-15s6.714844-15 15-15c26.351562 0 46.574219 8.183594 66.125 16.09375 17.671875 7.152344 34.363281 13.90625 54.875 13.90625 20.476562 0 36.910156-6.742188 54.308594-13.878906 19.324218-7.925782 39.304687-16.121094 65.691406-16.121094s46.367188 8.195312 65.691406 16.121094c13.386719 5.492187 26.03125 10.679687 40.332032 12.832031 8.195312 1.230469 13.835937 8.871094 12.605468 17.0625-1.234375 8.191406-8.875 13.835937-17.066406 12.601563-17.878906-2.6875-32.8125-8.816407-47.253906-14.738282-17.398438-7.136718-33.832032-13.878906-54.308594-13.878906s-36.910156 6.742188-54.308594 13.878906c-19.324218 7.925782-39.304687 16.121094-65.691406 16.121094zm0 0"/><path d="m433.601562 135.988281c-5.910156 0-11.511718-3.515625-13.886718-9.320312-3.140625-7.667969.535156-16.429688 8.199218-19.566407l.273438-.109374c19.460938-7.964844 41.519531-16.992188 68.8125-16.992188 8.28125 0 15 6.71875 15 15 0 8.285156-6.71875 15-15 15-21.390625 0-38.90625 7.167969-57.449219 14.757812l-.273437.109376c-1.859375.761718-3.785156 1.121093-5.675782 1.121093zm0 0"/><path d="m136 210c-26.351562 0-46.570312-8.183594-66.125-16.09375-17.671875-7.152344-34.363281-13.90625-54.875-13.90625-8.285156 0-15-6.714844-15-15s6.714844-15 15-15c26.351562 0 46.574219 8.183594 66.125 16.09375 17.671875 7.152344 34.363281 13.90625 54.875 13.90625 20.476562 0 36.910156-6.742188 54.308594-13.878906 19.324218-7.925782 39.304687-16.121094 65.691406-16.121094 26.390625 0 46.371094 8.195312 65.695312 16.125 3.085938 1.265625 6.277344 2.574219 9.394532 3.804688 7.707031 3.039062 11.488281 11.75 8.449218 19.457031-3.039062 7.703125-11.746093 11.488281-19.457031 8.449219-3.308593-1.304688-6.59375-2.652344-9.769531-3.957032-17.402344-7.136718-33.835938-13.878906-54.3125-13.878906s-36.910156 6.742188-54.308594 13.878906c-19.324218 7.925782-39.304687 16.121094-65.691406 16.121094zm0 0"/><path d="m394.441406 208.421875c-7.171875 0-13.515625-5.160156-14.765625-12.46875-1.398437-8.164063 4.085938-15.917969 12.253907-17.316406 13.496093-2.3125 25.738281-7.257813 38.703124-12.492188 19.644532-7.9375 39.964844-16.144531 66.363282-16.144531 8.285156 0 15 6.714844 15 15 0 8.28125-6.714844 15-15 15-20.566406 0-37.355469 6.78125-55.128906 13.957031-13.863282 5.601563-28.195313 11.390625-44.875 14.246094-.855469.152344-1.707032.21875-2.550782.21875zm0 0"/></svg>