<?xml version="1.0" encoding="iso-8859-1"?>
<!-- Generator: Adobe Illustrator 18.0.0, SVG Export Plug-In . SVG Version: 6.00 Build 0)  -->
<!DOCTYPE svg PUBLIC "-//W3C//DTD SVG 1.1//EN" "http://www.w3.org/Graphics/SVG/1.1/DTD/svg11.dtd">
<svg version="1.1" id="Capa_1" xmlns="http://www.w3.org/2000/svg" xmlns:xlink="http://www.w3.org/1999/xlink" x="0px" y="0px"
	 viewBox="0 0 493.647 493.647" style="enable-background:new 0 0 493.647 493.647;" xml:space="preserve">
<g>
	<path d="M325.431,124.642c0.746,0.028,1.491,0.043,2.236,0.043c8.386,0,16.716-1.833,24.303-5.314
		c2.646,0.323,5.493,0.515,8.608,0.515c0.002,0,0.003,0,0.005,0c10.994,0,23.819-2.277,39.204-6.96
		c1.742-0.53,2.953-2.112,3.011-3.933c0.106-3.398,2.061-83.462-46.201-103.721C351.203,3.009,342.864,0,332.758,0
		c-4.952,0-9.955,0.73-14.887,2.152c-4.642-0.621-21.891-2.208-30.323,7.021c-4.209,4.606-5.419,10.871-3.621,18.622
		c-8.868,10.051-14.018,22.863-14.535,36.315c-0.6,15.569,4.9,30.44,15.484,41.873C295.461,117.416,309.864,124.043,325.431,124.642
		z M332.758,8.5c8.477,0,15.435,2.464,20.55,4.611c37.975,15.94,40.858,78.052,41.005,92.575c-13.232,3.833-24.291,5.7-33.729,5.7
		c-0.001,0-0.003,0-0.003,0c-12.487,0-20.175-3.314-27.475-6.628c13.041-15.921,15.513-37.714,7.1-63.461
		c-4.56-13.952-11.179-25.704-15.17-32.107C327.615,8.731,330.197,8.5,332.758,8.5z M293.816,14.914
		c4.689-5.143,16.132-5.078,21.914-4.455c4.151,6.243,19.698,31.211,20.768,56.317c-5.125-5.432-11.869-9.632-18.484-13.741
		c-11.54-7.167-22.439-13.937-25.661-26.528C291.01,21.259,291.489,17.467,293.816,14.914z M277.885,64.438
		c0.383-9.954,3.735-19.497,9.546-27.453c5.876,10.702,16.501,17.309,26.098,23.27c9.626,5.979,18.718,11.646,21.904,20.362
		c-1.716,8.114-5.536,15.867-12.416,22.58c-1.02,0.994-1.473,2.433-1.208,3.832c0.264,1.398,1.211,2.572,2.522,3.126
		c1.491,0.629,2.964,1.299,4.523,2.008c2.368,1.078,4.835,2.196,7.515,3.238c-3.491,0.617-7.05,0.887-10.611,0.748
		c-13.299-0.512-25.603-6.172-34.645-15.939C282.071,90.442,277.373,77.738,277.885,64.438z"/>
	<path d="M489.19,314.166l-84.301-157.264c-12.44-23.544-37.478-35.96-59.528-29.518c-9.884,2.886-18.618,9.471-24.844,18.657
		l-52.72-4.196c0.028-0.225,0.054-0.451,0.045-0.685c-1.056-29.941-9.254-51.578-24.367-64.31
		c-5.344-4.503-16.787-11.795-33.821-10.912c-4.084-1.535-19.011-6.423-28.429,0.056c-4.713,3.242-7.116,8.546-7.162,15.763
		c-9.84,7.083-16.973,17.333-20.177,29.081c-3.733,13.677-1.916,27.989,5.116,40.299c7.032,12.309,18.436,21.144,32.112,24.876
		c4.582,1.25,7.21,1.847,9.924,1.846c0.847,0,1.705-0.06,2.63-0.174c-0.494,1.263-1.017,2.499-1.577,3.696
		c-3.107-1.883-6.403-3.313-9.828-4.248c-20.251-5.526-42.857,6.173-53.744,27.79l-36.732,71.764l-85.007,47.193
		c-1.348,0.748-2.185,2.167-2.188,3.708c-0.003,1.541,0.829,2.963,2.174,3.716l18.375,10.286c-0.379,0.446-0.678,0.971-0.851,1.57
		L4.921,445.167c-3.972,14.561,4.643,29.639,19.203,33.613c2.396,0.654,4.829,0.977,7.248,0.977c4.7,0,9.342-1.222,13.534-3.616
		c6.349-3.626,10.905-9.508,12.829-16.563l24.936-91.383l1.756,0.982v42.181c0,7.43,6.044,13.475,13.474,13.475h49.581v64.563
		c0,2.347,1.902,4.25,4.25,4.25h31.865c2.348,0,4.25-1.903,4.25-4.25v-64.563h52.114c7.43,0,13.475-6.045,13.475-13.475v-57.193
		c0-3.27-1.172-6.269-3.116-8.605l30.904-147.291c0.263-1.253-0.053-2.558-0.859-3.551c-0.192-0.236-0.409-0.445-0.643-0.632
		l32.279,2.57l12.626,165.564c0.097,1.277,0.766,2.443,1.819,3.172c0.718,0.497,1.564,0.755,2.418,0.755
		c0.399,0,0.8-0.056,1.191-0.17l5.022-1.466v89.276c0,16.465,13.396,29.861,29.86,29.861c16.465,0,29.86-13.396,29.86-29.861
		V347.333c0-0.087-0.021-0.169-0.025-0.255l91.863-26.825c1.229-0.359,2.231-1.254,2.728-2.435
		C489.859,316.637,489.795,315.295,489.19,314.166z M179.346,485.147h-23.365v-57.5h23.365V485.147z M316.525,188.489
		c-0.032-0.004-0.065-0.004-0.098-0.008l-58.397-4.649c-4.545-0.361-8.676-2.47-11.633-5.939c-2.957-3.469-4.387-7.881-4.025-12.425
		c0.703-8.812,8.165-15.713,16.988-15.713c0.457,0,0.921,0.019,1.379,0.055l97.743,7.78c4.544,0.362,8.676,2.472,11.633,5.94
		c2.958,3.469,4.387,7.882,4.025,12.426c-0.701,8.811-8.164,15.712-16.989,15.712c-0.456,0-0.919-0.019-1.377-0.055L316.525,188.489
		z M237.999,83.35c13.165,11.09,20.343,30.574,21.339,57.905c-13.215,0.012-24.388,10.346-25.438,23.538
		c-0.542,6.807,1.6,13.417,6.029,18.614c3.974,4.661,9.364,7.677,15.345,8.641c-1.817,10.333-3.779,18.462-4.832,22.544
		c-32.573,1.722-43.605-5.915-52.845-12.985c31.788-27.18,20.187-106.271,16.45-127.242
		C225.328,74.737,233.199,79.306,237.999,83.35z M186.035,73.001c4.775-3.292,14.205-1.224,19.184,0.396
		c1.191,6.425,4.421,25.475,5.256,47.034c-3.035-3.528-6.554-6.811-10.034-10.045c-9.061-8.42-17.618-16.373-17.877-27.839
		C182.456,77.81,183.591,74.687,186.035,73.001z M193.353,167.813c-11.486-3.134-21.064-10.554-26.97-20.892
		c-5.906-10.338-7.433-22.358-4.297-33.845c2.293-8.407,6.982-15.9,13.428-21.614c3.291,10.416,11.61,18.155,19.14,25.152
		c7.819,7.267,15.206,14.13,15.839,22.601c0.001,0.015,0.007,0.029,0.008,0.045c-0.396,9.827-1.527,20.016-3.906,29.263
		C200.969,169.775,200.299,169.708,193.353,167.813z M74.837,364.621l-25.302,92.72c-1.326,4.863-4.468,8.919-8.846,11.419
		c-4.377,2.5-9.466,3.147-14.328,1.82c-0.746-0.204-1.461-0.462-2.159-0.747l19.817-69.79c0.642-2.258-0.669-4.608-2.927-5.25
		c-2.267-0.644-4.609,0.67-5.249,2.927l-18.961,66.773c-3.835-4.577-5.455-10.881-3.777-17.033l29.312-101.8l32.677,18.292
		C74.994,364.167,74.901,364.385,74.837,364.621z M27.572,327.61l19.572-10.866c0.142,0.11,0.278,0.226,0.438,0.319l29,17
		c0.676,0.396,1.415,0.584,2.146,0.584c1.459,0,2.879-0.751,3.67-2.101c1.188-2.025,0.508-4.629-1.517-5.816l-25.159-14.748
		l51.323-28.493c0.737-0.409,1.337-1.029,1.721-1.779l37.333-72.94c9.089-18.046,27.567-27.9,43.927-23.438
		c2.717,0.741,5.33,1.907,7.806,3.426c-2.65,3.738-5.806,6.867-9.569,9.15c-1.217,0.738-1.983,2.037-2.042,3.459
		c-0.059,1.422,0.599,2.78,1.751,3.615c1.194,0.866,2.367,1.768,3.56,2.683c7.77,5.967,16.281,12.497,34.695,14.808l-28.194,115.335
		c-0.247,1.011-0.093,2.017,0.336,2.882H97.9c-7.43,0-13.474,6.044-13.474,13.474v5.271L27.572,327.61z M244.935,354.165v14.981
		H92.926v-14.981c0-2.743,2.231-4.974,4.974-4.974h142.061C242.704,349.191,244.935,351.423,244.935,354.165z M239.961,416.333H97.9
		c-2.742,0-4.974-2.232-4.974-4.975v-8.793c0.261,0.05,0.529,0.081,0.805,0.081h64c2.348,0,4.25-1.903,4.25-4.25
		c0-2.347-1.902-4.25-4.25-4.25h-64c-0.275,0-0.544,0.031-0.805,0.081v-16.581h152.009v33.712
		C244.935,414.102,242.704,416.333,239.961,416.333z M242.601,340.954c-0.855-0.17-1.737-0.263-2.641-0.263h-33.998
		c0.135-0.273,0.251-0.557,0.326-0.864l28.513-116.637c2.085,0.097,4.264,0.153,6.569,0.153c3.883-0.001,8.097-0.145,12.67-0.454
		c1.786-0.121,3.305-1.348,3.798-3.068c0.11-0.382,2.087-7.325,4.275-18.175h9.716L242.601,340.954z M386.298,453.787
		c0,11.778-9.582,21.361-21.36,21.361c-0.418,0-0.826-0.039-1.238-0.063c0.001-0.048,0.014-0.092,0.014-0.14v-64.898
		c0-2.347-1.902-4.25-4.25-4.25c-2.348,0-4.25,1.903-4.25,4.25v62.736c-6.897-3.546-11.636-10.721-11.636-18.996v-90.095
		c0-0.557-0.114-1.086-0.309-1.573l43.029-12.565V453.787z M332.703,356.348l-2.389-31.325l86.989-25.24
		c2.254-0.654,3.551-3.012,2.897-5.266c-0.655-2.254-3.013-3.553-5.267-2.897l-85.28,24.744l-9.077-119.026l34.523,2.749
		c0.681,0.054,1.371,0.081,2.051,0.081c13.228,0,24.412-10.339,25.462-23.538c0.542-6.807-1.599-13.418-6.029-18.615
		c-4.431-5.197-10.619-8.357-17.428-8.9l-28.567-2.274c4.736-5.473,10.654-9.401,17.155-11.299
		c18.194-5.311,39.067,5.34,49.642,25.352l81.837,152.668L332.703,356.348z"/>
	<path d="M12.731,278.647h17c2.348,0,4.25-1.903,4.25-4.25v-231c0-2.347-1.902-4.25-4.25-4.25h-17c-2.348,0-4.25,1.903-4.25,4.25
		v231C8.481,276.744,10.383,278.647,12.731,278.647z M16.981,47.647h8.5v222.5h-8.5V47.647z"/>
</g>
<g>
</g>
<g>
</g>
<g>
</g>
<g>
</g>
<g>
</g>
<g>
</g>
<g>
</g>
<g>
</g>
<g>
</g>
<g>
</g>
<g>
</g>
<g>
</g>
<g>
</g>
<g>
</g>
<g>
</g>
</svg>
